<?xml version="1.0" encoding="UTF-8" standalone="no"?>
<!-- This is a Stata 15.1 generated SVG file (http://www.stata.com) -->

<svg version="1.1" width="5.50in" height="4.00in" viewBox="0 0 3960 2880" xmlns="http://www.w3.org/2000/svg" xmlns:xlink="http://www.w3.org/1999/xlink">
	<desc>Stata Graph - figure2</desc>
	<rect x="0" y="0" width="3960" height="2880" style="fill:#EAF2F3;stroke:none"/>
	<rect x="0.00" y="0.00" width="3959.88" height="2880.00" style="fill:#EAF2F3"/>
	<rect x="2.88" y="2.88" width="3954.12" height="2874.24" style="fill:none;stroke:#EAF2F3;stroke-width:5.76"/>
	<rect x="373.85" y="100.86" width="3485.17" height="2132.77" style="fill:#FFFFFF"/>
	<rect x="376.73" y="103.74" width="3479.41" height="2127.01" style="fill:none;stroke:#FFFFFF;stroke-width:5.76"/>
	<line x1="373.85" y1="2074.98" x2="3859.02" y2="2074.98" style="stroke:#EAF2F3;stroke-width:8.64"/>
	<line x1="373.85" y1="1643.70" x2="3859.02" y2="1643.70" style="stroke:#EAF2F3;stroke-width:8.64"/>
	<line x1="373.85" y1="1212.29" x2="3859.02" y2="1212.29" style="stroke:#EAF2F3;stroke-width:8.64"/>
	<line x1="373.85" y1="781.01" x2="3859.02" y2="781.01" style="stroke:#EAF2F3;stroke-width:8.64"/>
	<line x1="373.85" y1="349.60" x2="3859.02" y2="349.60" style="stroke:#EAF2F3;stroke-width:8.64"/>
	<line x1="772.94" y1="1065.27" x2="1108.80" y2="1146.33" stroke-linecap="round" style="stroke:#1A476F;stroke-width:8.64"/>
	<line x1="1108.80" y1="1146.33" x2="1444.66" y2="1206.72" stroke-linecap="round" style="stroke:#1A476F;stroke-width:8.64"/>
	<line x1="1444.66" y1="1206.72" x2="1780.52" y2="1268.85" stroke-linecap="round" style="stroke:#1A476F;stroke-width:8.64"/>
	<line x1="1780.52" y1="1268.85" x2="2116.37" y2="1406.96" stroke-linecap="round" style="stroke:#1A476F;stroke-width:8.64"/>
	<line x1="2116.37" y1="1406.96" x2="2452.23" y2="1519.94" stroke-linecap="round" style="stroke:#1A476F;stroke-width:8.64"/>
	<line x1="2452.23" y1="1519.94" x2="2788.09" y2="1523.78" stroke-linecap="round" style="stroke:#1A476F;stroke-width:8.64"/>
	<line x1="2788.09" y1="1523.78" x2="3123.95" y2="1498.41" stroke-linecap="round" style="stroke:#1A476F;stroke-width:8.64"/>
	<line x1="3123.95" y1="1498.41" x2="3459.80" y2="1636.77" stroke-linecap="round" style="stroke:#1A476F;stroke-width:8.64"/>
	<circle cx="772.94" cy="1065.27" r="26.35" style="fill:#1A476F"/>
	<circle cx="772.94" cy="1065.27" r="22.03" style="fill:none;stroke:#1A476F;stroke-width:8.64"/>
	<circle cx="1108.80" cy="1146.33" r="26.35" style="fill:#1A476F"/>
	<circle cx="1108.80" cy="1146.33" r="22.03" style="fill:none;stroke:#1A476F;stroke-width:8.64"/>
	<circle cx="1444.66" cy="1206.72" r="26.35" style="fill:#1A476F"/>
	<circle cx="1444.66" cy="1206.72" r="22.03" style="fill:none;stroke:#1A476F;stroke-width:8.64"/>
	<circle cx="1780.52" cy="1268.85" r="26.35" style="fill:#1A476F"/>
	<circle cx="1780.52" cy="1268.85" r="22.03" style="fill:none;stroke:#1A476F;stroke-width:8.64"/>
	<circle cx="2116.37" cy="1406.96" r="26.35" style="fill:#1A476F"/>
	<circle cx="2116.37" cy="1406.96" r="22.03" style="fill:none;stroke:#1A476F;stroke-width:8.64"/>
	<circle cx="2452.23" cy="1519.94" r="26.35" style="fill:#1A476F"/>
	<circle cx="2452.23" cy="1519.94" r="22.03" style="fill:none;stroke:#1A476F;stroke-width:8.64"/>
	<circle cx="2788.09" cy="1523.78" r="26.35" style="fill:#1A476F"/>
	<circle cx="2788.09" cy="1523.78" r="22.03" style="fill:none;stroke:#1A476F;stroke-width:8.64"/>
	<circle cx="3123.95" cy="1498.41" r="26.35" style="fill:#1A476F"/>
	<circle cx="3123.95" cy="1498.41" r="22.03" style="fill:none;stroke:#1A476F;stroke-width:8.64"/>
	<circle cx="3459.80" cy="1636.77" r="26.35" style="fill:#1A476F"/>
	<circle cx="3459.80" cy="1636.77" r="22.03" style="fill:none;stroke:#1A476F;stroke-width:8.64"/>
	<line x1="772.94" y1="164.22" x2="1108.80" y2="629.66" stroke-linecap="round" style="stroke:#90353B;stroke-width:8.64"/>
	<line x1="1108.80" y1="629.66" x2="1444.66" y2="611.96" stroke-linecap="round" style="stroke:#90353B;stroke-width:8.64"/>
	<line x1="1444.66" y1="611.96" x2="1780.52" y2="530.41" stroke-linecap="round" style="stroke:#90353B;stroke-width:8.64"/>
	<line x1="1780.52" y1="530.41" x2="2116.37" y2="1270.21" stroke-linecap="round" style="stroke:#90353B;stroke-width:8.64"/>
	<line x1="2116.37" y1="1270.21" x2="2452.23" y2="1745.55" stroke-linecap="round" style="stroke:#90353B;stroke-width:8.64"/>
	<line x1="2452.23" y1="1745.55" x2="2788.09" y2="1953.45" stroke-linecap="round" style="stroke:#90353B;stroke-width:8.64"/>
	<line x1="2788.09" y1="1953.45" x2="3123.95" y2="2109.63" stroke-linecap="round" style="stroke:#90353B;stroke-width:8.64"/>
	<line x1="3123.95" y1="2109.63" x2="3459.80" y2="2170.40" stroke-linecap="round" style="stroke:#90353B;stroke-width:8.64"/>
	<circle cx="772.94" cy="164.22" r="26.35" style="fill:#90353B"/>
	<circle cx="772.94" cy="164.22" r="22.03" style="fill:none;stroke:#90353B;stroke-width:8.64"/>
	<circle cx="1108.80" cy="629.66" r="26.35" style="fill:#90353B"/>
	<circle cx="1108.80" cy="629.66" r="22.03" style="fill:none;stroke:#90353B;stroke-width:8.64"/>
	<circle cx="1444.66" cy="611.96" r="26.35" style="fill:#90353B"/>
	<circle cx="1444.66" cy="611.96" r="22.03" style="fill:none;stroke:#90353B;stroke-width:8.64"/>
	<circle cx="1780.52" cy="530.41" r="26.35" style="fill:#90353B"/>
	<circle cx="1780.52" cy="530.41" r="22.03" style="fill:none;stroke:#90353B;stroke-width:8.64"/>
	<circle cx="2116.37" cy="1270.21" r="26.35" style="fill:#90353B"/>
	<circle cx="2116.37" cy="1270.21" r="22.03" style="fill:none;stroke:#90353B;stroke-width:8.64"/>
	<circle cx="2452.23" cy="1745.55" r="26.35" style="fill:#90353B"/>
	<circle cx="2452.23" cy="1745.55" r="22.03" style="fill:none;stroke:#90353B;stroke-width:8.64"/>
	<circle cx="2788.09" cy="1953.45" r="26.35" style="fill:#90353B"/>
	<circle cx="2788.09" cy="1953.45" r="22.03" style="fill:none;stroke:#90353B;stroke-width:8.64"/>
	<circle cx="3123.95" cy="2109.63" r="26.35" style="fill:#90353B"/>
	<circle cx="3123.95" cy="2109.63" r="22.03" style="fill:none;stroke:#90353B;stroke-width:8.64"/>
	<circle cx="3459.80" cy="2170.40" r="26.35" style="fill:#90353B"/>
	<circle cx="3459.80" cy="2170.40" r="22.03" style="fill:none;stroke:#90353B;stroke-width:8.64"/>
	<line x1="373.85" y1="2233.63" x2="373.85" y2="100.86" style="stroke:#000000;stroke-width:5.76"/>
	<line x1="373.85" y1="2074.98" x2="333.88" y2="2074.98" style="stroke:#000000;stroke-width:5.76"/>
	<text x="283.77" y="2074.98" style="font-family:'Helvetica';font-size:99.99px;fill:#000000" transform="rotate(-90 283.77,2074.98)" text-anchor="middle">10</text>
	<line x1="373.85" y1="1643.70" x2="333.88" y2="1643.70" style="stroke:#000000;stroke-width:5.76"/>
	<text x="283.77" y="1643.70" style="font-family:'Helvetica';font-size:99.99px;fill:#000000" transform="rotate(-90 283.77,1643.70)" text-anchor="middle">20</text>
	<line x1="373.85" y1="1212.29" x2="333.88" y2="1212.29" style="stroke:#000000;stroke-width:5.76"/>
	<text x="283.77" y="1212.29" style="font-family:'Helvetica';font-size:99.99px;fill:#000000" transform="rotate(-90 283.77,1212.29)" text-anchor="middle">30</text>
	<line x1="373.85" y1="781.01" x2="333.88" y2="781.01" style="stroke:#000000;stroke-width:5.76"/>
	<text x="283.77" y="781.01" style="font-family:'Helvetica';font-size:99.99px;fill:#000000" transform="rotate(-90 283.77,781.01)" text-anchor="middle">40</text>
	<line x1="373.85" y1="349.60" x2="333.88" y2="349.60" style="stroke:#000000;stroke-width:5.76"/>
	<text x="283.77" y="349.60" style="font-family:'Helvetica';font-size:99.99px;fill:#000000" transform="rotate(-90 283.77,349.60)" text-anchor="middle">50</text>
	<text x="190.71" y="1167.25" style="font-family:'Helvetica';font-size:99.99px;fill:#000000" transform="rotate(-90 190.71,1167.25)" text-anchor="middle">Life Expectancy disparity level</text>
	<line x1="373.85" y1="2233.63" x2="3859.02" y2="2233.63" style="stroke:#000000;stroke-width:5.76"/>
	<line x1="437.21" y1="2233.63" x2="437.21" y2="2273.73" style="stroke:#000000;stroke-width:5.76"/>
	<text x="437.21" y="2363.59" style="font-family:'Helvetica';font-size:99.99px;fill:#000000" text-anchor="middle">1960</text>
	<line x1="1108.92" y1="2233.63" x2="1108.92" y2="2273.73" style="stroke:#000000;stroke-width:5.76"/>
	<text x="1108.92" y="2363.59" style="font-family:'Helvetica';font-size:99.99px;fill:#000000" text-anchor="middle">1970</text>
	<line x1="1780.64" y1="2233.63" x2="1780.64" y2="2273.73" style="stroke:#000000;stroke-width:5.76"/>
	<text x="1780.64" y="2363.59" style="font-family:'Helvetica';font-size:99.99px;fill:#000000" text-anchor="middle">1980</text>
	<line x1="2452.35" y1="2233.63" x2="2452.35" y2="2273.73" style="stroke:#000000;stroke-width:5.76"/>
	<text x="2452.35" y="2363.59" style="font-family:'Helvetica';font-size:99.99px;fill:#000000" text-anchor="middle">1990</text>
	<line x1="3124.07" y1="2233.63" x2="3124.07" y2="2273.73" style="stroke:#000000;stroke-width:5.76"/>
	<text x="3124.07" y="2363.59" style="font-family:'Helvetica';font-size:99.99px;fill:#000000" text-anchor="middle">2000</text>
	<line x1="3795.66" y1="2233.63" x2="3795.66" y2="2273.73" style="stroke:#000000;stroke-width:5.76"/>
	<text x="3795.66" y="2363.59" style="font-family:'Helvetica';font-size:99.99px;fill:#000000" text-anchor="middle">2010</text>
	<text x="2116.50" y="2473.60" style="font-family:'Helvetica';font-size:99.99px;fill:#000000" text-anchor="middle">5-year time period</text>
	<rect x="408.38" y="2558.24" width="3416.12" height="186.37" style="fill:#FFFFFF"/>
	<rect x="411.25" y="2561.12" width="3410.36" height="180.61" style="fill:none;stroke:#000000;stroke-width:5.76"/>
	<line x1="451.56" y1="2651.43" x2="803.14" y2="2651.43" style="stroke:#1A476F;stroke-width:8.64"/>
	<circle cx="627.41" cy="2651.43" r="26.35" style="fill:#1A476F"/>
	<circle cx="627.41" cy="2651.43" r="22.03" style="fill:none;stroke:#1A476F;stroke-width:8.64"/>
	<line x1="2182.21" y1="2651.43" x2="2533.66" y2="2651.43" style="stroke:#90353B;stroke-width:8.64"/>
	<circle cx="2357.93" cy="2651.43" r="26.35" style="fill:#90353B"/>
	<circle cx="2357.93" cy="2651.43" r="22.03" style="fill:none;stroke:#90353B;stroke-width:8.64"/>
	<text x="859.44" y="2686.46" style="font-family:'Helvetica';font-size:99.99px;fill:#000000">Life Expectancy disparity level</text>
	<text x="2590.09" y="2686.46" style="font-family:'Helvetica';font-size:99.99px;fill:#000000">Life Expectancy disparity level</text>
</svg>
