<?xml version="1.0" encoding="UTF-8" standalone="no"?>
<!-- This is a Stata 15.1 generated SVG file (http://www.stata.com) -->

<svg version="1.1" width="5.50in" height="4.00in" viewBox="0 0 3960 2880" xmlns="http://www.w3.org/2000/svg" xmlns:xlink="http://www.w3.org/1999/xlink">
	<desc>Stata Graph - figure3</desc>
	<rect x="0" y="0" width="3960" height="2880" style="fill:#EAF2F3;stroke:none"/>
	<rect x="0.00" y="0.00" width="3959.88" height="2880.00" style="fill:#EAF2F3"/>
	<rect x="2.88" y="2.88" width="3954.12" height="2874.24" style="fill:none;stroke:#EAF2F3;stroke-width:5.76"/>
	<rect x="373.85" y="100.86" width="3485.17" height="1992.81" style="fill:#FFFFFF"/>
	<rect x="376.73" y="103.74" width="3479.41" height="1987.05" style="fill:none;stroke:#FFFFFF;stroke-width:5.76"/>
	<line x1="373.85" y1="2030.31" x2="3859.02" y2="2030.31" style="stroke:#EAF2F3;stroke-width:8.64"/>
	<line x1="373.85" y1="1563.75" x2="3859.02" y2="1563.75" style="stroke:#EAF2F3;stroke-width:8.64"/>
	<line x1="373.85" y1="1097.20" x2="3859.02" y2="1097.20" style="stroke:#EAF2F3;stroke-width:8.64"/>
	<line x1="373.85" y1="630.65" x2="3859.02" y2="630.65" style="stroke:#EAF2F3;stroke-width:8.64"/>
	<line x1="772.94" y1="763.69" x2="1108.80" y2="1015.40" stroke-linecap="round" style="stroke:#1A476F;stroke-width:8.64"/>
	<line x1="1108.80" y1="1015.40" x2="1444.66" y2="1005.87" stroke-linecap="round" style="stroke:#1A476F;stroke-width:8.64"/>
	<line x1="1444.66" y1="1005.87" x2="1780.52" y2="961.82" stroke-linecap="round" style="stroke:#1A476F;stroke-width:8.64"/>
	<line x1="1780.52" y1="961.82" x2="2116.37" y2="1361.79" stroke-linecap="round" style="stroke:#1A476F;stroke-width:8.64"/>
	<line x1="2116.37" y1="1361.79" x2="2452.23" y2="1618.95" stroke-linecap="round" style="stroke:#1A476F;stroke-width:8.64"/>
	<line x1="2452.23" y1="1618.95" x2="2788.09" y2="1731.32" stroke-linecap="round" style="stroke:#1A476F;stroke-width:8.64"/>
	<line x1="2788.09" y1="1731.32" x2="3123.95" y2="1815.84" stroke-linecap="round" style="stroke:#1A476F;stroke-width:8.64"/>
	<line x1="3123.95" y1="1815.84" x2="3459.80" y2="1848.64" stroke-linecap="round" style="stroke:#1A476F;stroke-width:8.64"/>
	<circle cx="772.94" cy="763.69" r="26.35" style="fill:#1A476F"/>
	<circle cx="772.94" cy="763.69" r="22.03" style="fill:none;stroke:#1A476F;stroke-width:8.64"/>
	<circle cx="1108.80" cy="1015.40" r="26.35" style="fill:#1A476F"/>
	<circle cx="1108.80" cy="1015.40" r="22.03" style="fill:none;stroke:#1A476F;stroke-width:8.64"/>
	<circle cx="1444.66" cy="1005.87" r="26.35" style="fill:#1A476F"/>
	<circle cx="1444.66" cy="1005.87" r="22.03" style="fill:none;stroke:#1A476F;stroke-width:8.64"/>
	<circle cx="1780.52" cy="961.82" r="26.35" style="fill:#1A476F"/>
	<circle cx="1780.52" cy="961.82" r="22.03" style="fill:none;stroke:#1A476F;stroke-width:8.64"/>
	<circle cx="2116.37" cy="1361.79" r="26.35" style="fill:#1A476F"/>
	<circle cx="2116.37" cy="1361.79" r="22.03" style="fill:none;stroke:#1A476F;stroke-width:8.64"/>
	<circle cx="2452.23" cy="1618.95" r="26.35" style="fill:#1A476F"/>
	<circle cx="2452.23" cy="1618.95" r="22.03" style="fill:none;stroke:#1A476F;stroke-width:8.64"/>
	<circle cx="2788.09" cy="1731.32" r="26.35" style="fill:#1A476F"/>
	<circle cx="2788.09" cy="1731.32" r="22.03" style="fill:none;stroke:#1A476F;stroke-width:8.64"/>
	<circle cx="3123.95" cy="1815.84" r="26.35" style="fill:#1A476F"/>
	<circle cx="3123.95" cy="1815.84" r="22.03" style="fill:none;stroke:#1A476F;stroke-width:8.64"/>
	<circle cx="3459.80" cy="1848.64" r="26.35" style="fill:#1A476F"/>
	<circle cx="3459.80" cy="1848.64" r="22.03" style="fill:none;stroke:#1A476F;stroke-width:8.64"/>
	<line x1="772.94" y1="447.62" x2="1108.80" y2="732.25" stroke-linecap="round" style="stroke:#90353B;stroke-width:8.64"/>
	<line x1="1108.80" y1="732.25" x2="1444.66" y2="1059.70" stroke-linecap="round" style="stroke:#90353B;stroke-width:8.64"/>
	<line x1="1444.66" y1="1059.70" x2="1780.52" y2="1328.99" stroke-linecap="round" style="stroke:#90353B;stroke-width:8.64"/>
	<line x1="1780.52" y1="1328.99" x2="2116.37" y2="1532.07" stroke-linecap="round" style="stroke:#90353B;stroke-width:8.64"/>
	<line x1="2116.37" y1="1532.07" x2="2452.23" y2="1653.60" stroke-linecap="round" style="stroke:#90353B;stroke-width:8.64"/>
	<line x1="2452.23" y1="1653.60" x2="2788.09" y2="1718.32" stroke-linecap="round" style="stroke:#90353B;stroke-width:8.64"/>
	<line x1="2788.09" y1="1718.32" x2="3123.95" y2="1747.90" stroke-linecap="round" style="stroke:#90353B;stroke-width:8.64"/>
	<line x1="3123.95" y1="1747.90" x2="3459.80" y2="1792.95" stroke-linecap="round" style="stroke:#90353B;stroke-width:8.64"/>
	<circle cx="772.94" cy="447.62" r="26.35" style="fill:#90353B"/>
	<circle cx="772.94" cy="447.62" r="22.03" style="fill:none;stroke:#90353B;stroke-width:8.64"/>
	<circle cx="1108.80" cy="732.25" r="26.35" style="fill:#90353B"/>
	<circle cx="1108.80" cy="732.25" r="22.03" style="fill:none;stroke:#90353B;stroke-width:8.64"/>
	<circle cx="1444.66" cy="1059.70" r="26.35" style="fill:#90353B"/>
	<circle cx="1444.66" cy="1059.70" r="22.03" style="fill:none;stroke:#90353B;stroke-width:8.64"/>
	<circle cx="1780.52" cy="1328.99" r="26.35" style="fill:#90353B"/>
	<circle cx="1780.52" cy="1328.99" r="22.03" style="fill:none;stroke:#90353B;stroke-width:8.64"/>
	<circle cx="2116.37" cy="1532.07" r="26.35" style="fill:#90353B"/>
	<circle cx="2116.37" cy="1532.07" r="22.03" style="fill:none;stroke:#90353B;stroke-width:8.64"/>
	<circle cx="2452.23" cy="1653.60" r="26.35" style="fill:#90353B"/>
	<circle cx="2452.23" cy="1653.60" r="22.03" style="fill:none;stroke:#90353B;stroke-width:8.64"/>
	<circle cx="2788.09" cy="1718.32" r="26.35" style="fill:#90353B"/>
	<circle cx="2788.09" cy="1718.32" r="22.03" style="fill:none;stroke:#90353B;stroke-width:8.64"/>
	<circle cx="3123.95" cy="1747.90" r="26.35" style="fill:#90353B"/>
	<circle cx="3123.95" cy="1747.90" r="22.03" style="fill:none;stroke:#90353B;stroke-width:8.64"/>
	<circle cx="3459.80" cy="1792.95" r="26.35" style="fill:#90353B"/>
	<circle cx="3459.80" cy="1792.95" r="22.03" style="fill:none;stroke:#90353B;stroke-width:8.64"/>
	<line x1="772.94" y1="1251.03" x2="1108.80" y2="1294.84" stroke-linecap="round" style="stroke:#55752F;stroke-width:8.64"/>
	<line x1="1108.80" y1="1294.84" x2="1444.66" y2="1327.51" stroke-linecap="round" style="stroke:#55752F;stroke-width:8.64"/>
	<line x1="1444.66" y1="1327.51" x2="1780.52" y2="1361.17" stroke-linecap="round" style="stroke:#55752F;stroke-width:8.64"/>
	<line x1="1780.52" y1="1361.17" x2="2116.37" y2="1435.79" stroke-linecap="round" style="stroke:#55752F;stroke-width:8.64"/>
	<line x1="2116.37" y1="1435.79" x2="2452.23" y2="1496.93" stroke-linecap="round" style="stroke:#55752F;stroke-width:8.64"/>
	<line x1="2452.23" y1="1496.93" x2="2788.09" y2="1499.03" stroke-linecap="round" style="stroke:#55752F;stroke-width:8.64"/>
	<line x1="2788.09" y1="1499.03" x2="3123.95" y2="1485.29" stroke-linecap="round" style="stroke:#55752F;stroke-width:8.64"/>
	<line x1="3123.95" y1="1485.29" x2="3459.80" y2="1560.17" stroke-linecap="round" style="stroke:#55752F;stroke-width:8.64"/>
	<circle cx="772.94" cy="1251.03" r="26.35" style="fill:#55752F"/>
	<circle cx="772.94" cy="1251.03" r="22.03" style="fill:none;stroke:#55752F;stroke-width:8.64"/>
	<circle cx="1108.80" cy="1294.84" r="26.35" style="fill:#55752F"/>
	<circle cx="1108.80" cy="1294.84" r="22.03" style="fill:none;stroke:#55752F;stroke-width:8.64"/>
	<circle cx="1444.66" cy="1327.51" r="26.35" style="fill:#55752F"/>
	<circle cx="1444.66" cy="1327.51" r="22.03" style="fill:none;stroke:#55752F;stroke-width:8.64"/>
	<circle cx="1780.52" cy="1361.17" r="26.35" style="fill:#55752F"/>
	<circle cx="1780.52" cy="1361.17" r="22.03" style="fill:none;stroke:#55752F;stroke-width:8.64"/>
	<circle cx="2116.37" cy="1435.79" r="26.35" style="fill:#55752F"/>
	<circle cx="2116.37" cy="1435.79" r="22.03" style="fill:none;stroke:#55752F;stroke-width:8.64"/>
	<circle cx="2452.23" cy="1496.93" r="26.35" style="fill:#55752F"/>
	<circle cx="2452.23" cy="1496.93" r="22.03" style="fill:none;stroke:#55752F;stroke-width:8.64"/>
	<circle cx="2788.09" cy="1499.03" r="26.35" style="fill:#55752F"/>
	<circle cx="2788.09" cy="1499.03" r="22.03" style="fill:none;stroke:#55752F;stroke-width:8.64"/>
	<circle cx="3123.95" cy="1485.29" r="26.35" style="fill:#55752F"/>
	<circle cx="3123.95" cy="1485.29" r="22.03" style="fill:none;stroke:#55752F;stroke-width:8.64"/>
	<circle cx="3459.80" cy="1560.17" r="26.35" style="fill:#55752F"/>
	<circle cx="3459.80" cy="1560.17" r="22.03" style="fill:none;stroke:#55752F;stroke-width:8.64"/>
	<line x1="373.85" y1="2093.67" x2="373.85" y2="100.86" style="stroke:#000000;stroke-width:5.76"/>
	<line x1="373.85" y1="2030.31" x2="333.88" y2="2030.31" style="stroke:#000000;stroke-width:5.76"/>
	<text x="283.77" y="2030.31" style="font-family:'Helvetica';font-size:99.99px;fill:#000000" transform="rotate(-90 283.77,2030.31)" text-anchor="middle">0</text>
	<line x1="373.85" y1="1563.75" x2="333.88" y2="1563.75" style="stroke:#000000;stroke-width:5.76"/>
	<text x="283.77" y="1563.75" style="font-family:'Helvetica';font-size:99.99px;fill:#000000" transform="rotate(-90 283.77,1563.75)" text-anchor="middle">20</text>
	<line x1="373.85" y1="1097.20" x2="333.88" y2="1097.20" style="stroke:#000000;stroke-width:5.76"/>
	<text x="283.77" y="1097.20" style="font-family:'Helvetica';font-size:99.99px;fill:#000000" transform="rotate(-90 283.77,1097.20)" text-anchor="middle">40</text>
	<line x1="373.85" y1="630.65" x2="333.88" y2="630.65" style="stroke:#000000;stroke-width:5.76"/>
	<text x="283.77" y="630.65" style="font-family:'Helvetica';font-size:99.99px;fill:#000000" transform="rotate(-90 283.77,630.65)" text-anchor="middle">60</text>
	<line x1="373.85" y1="164.22" x2="333.88" y2="164.22" style="stroke:#000000;stroke-width:5.76"/>
	<text x="283.77" y="164.22" style="font-family:'Helvetica';font-size:99.99px;fill:#000000" transform="rotate(-90 283.77,164.22)" text-anchor="middle">80</text>
	<text x="190.71" y="1097.20" style="font-family:'Helvetica';font-size:99.99px;fill:#000000" transform="rotate(-90 190.71,1097.20)" text-anchor="middle">Life Expectancy disparity level</text>
	<line x1="373.85" y1="2093.67" x2="3859.02" y2="2093.67" style="stroke:#000000;stroke-width:5.76"/>
	<line x1="437.21" y1="2093.67" x2="437.21" y2="2133.64" style="stroke:#000000;stroke-width:5.76"/>
	<text x="437.21" y="2223.62" style="font-family:'Helvetica';font-size:99.99px;fill:#000000" text-anchor="middle">1960</text>
	<line x1="1108.92" y1="2093.67" x2="1108.92" y2="2133.64" style="stroke:#000000;stroke-width:5.76"/>
	<text x="1108.92" y="2223.62" style="font-family:'Helvetica';font-size:99.99px;fill:#000000" text-anchor="middle">1970</text>
	<line x1="1780.64" y1="2093.67" x2="1780.64" y2="2133.64" style="stroke:#000000;stroke-width:5.76"/>
	<text x="1780.64" y="2223.62" style="font-family:'Helvetica';font-size:99.99px;fill:#000000" text-anchor="middle">1980</text>
	<line x1="2452.35" y1="2093.67" x2="2452.35" y2="2133.64" style="stroke:#000000;stroke-width:5.76"/>
	<text x="2452.35" y="2223.62" style="font-family:'Helvetica';font-size:99.99px;fill:#000000" text-anchor="middle">1990</text>
	<line x1="3124.07" y1="2093.67" x2="3124.07" y2="2133.64" style="stroke:#000000;stroke-width:5.76"/>
	<text x="3124.07" y="2223.62" style="font-family:'Helvetica';font-size:99.99px;fill:#000000" text-anchor="middle">2000</text>
	<line x1="3795.66" y1="2093.67" x2="3795.66" y2="2133.64" style="stroke:#000000;stroke-width:5.76"/>
	<text x="3795.66" y="2223.62" style="font-family:'Helvetica';font-size:99.99px;fill:#000000" text-anchor="middle">2010</text>
	<text x="2116.50" y="2333.64" style="font-family:'Helvetica';font-size:99.99px;fill:#000000" text-anchor="middle">5-year time period</text>
	<rect x="408.38" y="2418.27" width="3416.12" height="326.34" style="fill:#FFFFFF"/>
	<rect x="411.25" y="2421.15" width="3410.36" height="320.58" style="fill:none;stroke:#000000;stroke-width:5.76"/>
	<line x1="451.56" y1="2511.46" x2="803.14" y2="2511.46" style="stroke:#1A476F;stroke-width:8.64"/>
	<circle cx="627.41" cy="2511.46" r="26.35" style="fill:#1A476F"/>
	<circle cx="627.41" cy="2511.46" r="22.03" style="fill:none;stroke:#1A476F;stroke-width:8.64"/>
	<line x1="2182.21" y1="2511.46" x2="2533.66" y2="2511.46" style="stroke:#90353B;stroke-width:8.64"/>
	<circle cx="2357.93" cy="2511.46" r="26.35" style="fill:#90353B"/>
	<circle cx="2357.93" cy="2511.46" r="22.03" style="fill:none;stroke:#90353B;stroke-width:8.64"/>
	<line x1="451.56" y1="2651.43" x2="803.14" y2="2651.43" style="stroke:#55752F;stroke-width:8.64"/>
	<circle cx="627.41" cy="2651.43" r="26.35" style="fill:#55752F"/>
	<circle cx="627.41" cy="2651.43" r="22.03" style="fill:none;stroke:#55752F;stroke-width:8.64"/>
	<text x="859.44" y="2546.49" style="font-family:'Helvetica';font-size:99.99px;fill:#000000">Life Expectancy disparity level</text>
	<text x="2590.09" y="2546.49" style="font-family:'Helvetica';font-size:99.99px;fill:#000000">Life Expectancy disparity level</text>
	<text x="859.44" y="2686.46" style="font-family:'Helvetica';font-size:99.99px;fill:#000000">Life Expectancy disparity level</text>
</svg>
